<mxfile host="app.diagrams.net" modified="2022-09-15T14:42:02.680Z" agent="5.0 (Windows NT 10.0; Win64; x64) AppleWebKit/537.36 (KHTML, like Gecko) Chrome/105.0.0.0 Safari/537.36" etag="IQfc70Ng121jn-QBu075" version="20.1.3" type="github">
  <diagram id="6_acY6-9k6HeERfGbPWs" name="Page-1">
    <mxGraphModel dx="1422" dy="836" grid="1" gridSize="10" guides="1" tooltips="1" connect="1" arrows="1" fold="1" page="1" pageScale="1" pageWidth="850" pageHeight="1100" math="0" shadow="0">
      <root>
        <mxCell id="0" />
        <mxCell id="1" parent="0" />
        <mxCell id="OZUVgrPeMeW1dvuewmTe-1" value="Inicio" style="ellipse;whiteSpace=wrap;html=1;" vertex="1" parent="1">
          <mxGeometry x="130" y="50" width="60" height="40" as="geometry" />
        </mxCell>
        <mxCell id="OZUVgrPeMeW1dvuewmTe-2" value="Fin" style="ellipse;whiteSpace=wrap;html=1;" vertex="1" parent="1">
          <mxGeometry x="170" y="680" width="50" height="40" as="geometry" />
        </mxCell>
      </root>
    </mxGraphModel>
  </diagram>
</mxfile>
